<?xml version="1.0" standalone="no"?>
<!DOCTYPE svg PUBLIC "-//W3C//DTD SVG 20010904//EN"
 "http://www.w3.org/TR/2001/REC-SVG-20010904/DTD/svg10.dtd">
<svg version="1.0" xmlns="http://www.w3.org/2000/svg"
 width="189.000000pt" height="123.000000pt" viewBox="0 0 189.000000 123.000000"
 preserveAspectRatio="xMidYMid meet">

<g transform="translate(0.000000,123.000000) scale(0.100000,-0.100000)"
fill="#000000" stroke="none">
<path d="M105 1218 c-32 -17 -76 -61 -91 -90 -21 -41 -21 -976 0 -1017 22 -41
80 -88 123 -100 54 -15 1554 -15 1608 0 52 15 119 82 134 134 15 53 15 895 0
948 -12 43 -59 101 -100 123 -24 12 -150 14 -841 14 -574 -1 -819 -4 -833 -12z
m216 -348 c7 -66 9 -187 6 -325 -6 -221 -13 -286 -32 -286 -19 0 -26 65 -32
286 -5 202 6 409 23 437 14 22 24 -13 35 -112z m1310 0 c7 -66 9 -187 6 -325
-6 -221 -13 -286 -32 -286 -19 0 -26 65 -32 286 -5 202 6 409 23 437 14 22 24
-13 35 -112z m-1180 -95 c14 -74 7 -348 -10 -389 -30 -75 -55 56 -49 259 7
207 34 266 59 130z m420 0 c14 -74 7 -348 -10 -389 -30 -75 -55 56 -49 259 7
207 34 266 59 130z m340 0 c14 -74 7 -348 -10 -389 -30 -75 -55 56 -49 259 7
207 34 266 59 130z m290 0 c14 -74 7 -348 -10 -389 -30 -75 -55 56 -49 259 7
207 34 266 59 130z m-942 -86 c24 -69 7 -219 -24 -219 -20 0 -35 55 -35 125 0
70 15 125 35 125 7 0 18 -14 24 -31z m190 0 c24 -69 7 -219 -24 -219 -20 0
-35 55 -35 125 0 70 15 125 35 125 7 0 18 -14 24 -31z m351 -91 c0 -103 -7
-140 -21 -116 -10 15 -12 198 -3 223 14 35 24 -11 24 -107z m200 0 c0 -103 -7
-140 -21 -116 -10 15 -12 198 -3 223 14 35 24 -11 24 -107z m80 0 c0 -103 -7
-140 -21 -116 -10 15 -12 198 -3 223 14 35 24 -11 24 -107z m-742 -14 c-2 -27
-7 -49 -13 -49 -11 0 -19 79 -10 103 11 30 26 -5 23 -54z m310 0 c-2 -27 -7
-49 -13 -49 -11 0 -19 79 -10 103 11 30 26 -5 23 -54z m80 0 c-2 -27 -7 -49
-13 -49 -11 0 -19 79 -10 103 11 30 26 -5 23 -54z"/>
</g>
</svg>
