<?xml version="1.0" standalone="no"?>
<!DOCTYPE svg PUBLIC "-//W3C//DTD SVG 20010904//EN"
 "http://www.w3.org/TR/2001/REC-SVG-20010904/DTD/svg10.dtd">
<svg version="1.0" xmlns="http://www.w3.org/2000/svg"
 width="126.000000pt" height="61.000000pt" viewBox="0 0 126.000000 61.000000"
 preserveAspectRatio="xMidYMid meet">

<g transform="translate(0.000000,61.000000) scale(0.100000,-0.100000)"
fill="#000000" stroke="none">
<path d="M10 570 l0 -40 50 0 50 0 0 -260 0 -260 40 0 40 0 0 259 0 260 48 3
c47 3 47 3 50 41 l3 37 -140 0 -141 0 0 -40z"/>
<path d="M794 440 c-12 -4 -31 -21 -43 -36 l-21 -27 0 32 c0 29 -2 31 -35 31
l-35 0 0 -215 0 -215 34 0 35 0 3 166 c3 160 4 166 27 185 28 23 54 24 75 3
13 -13 16 -44 16 -185 l0 -169 40 0 40 0 0 180 c0 181 -6 216 -39 237 -26 16
-74 23 -97 13z"/>
<path d="M1064 440 c-62 -19 -69 -37 -72 -197 -2 -98 0 -155 9 -175 15 -37 60
-60 118 -60 88 0 124 29 137 110 l7 42 -42 0 c-36 0 -41 -3 -41 -23 0 -37 -23
-60 -60 -60 -44 0 -62 25 -58 83 l3 45 98 3 97 3 -1 62 c0 76 -16 124 -49 149
-30 22 -103 31 -146 18z m98 -77 c12 -11 18 -30 18 -60 l0 -43 -60 0 -60 0 0
40 c0 67 58 103 102 63z"/>
<path d="M330 260 c0 -142 3 -187 15 -210 29 -55 118 -57 162 -3 l23 28 0 -32
c0 -31 2 -33 35 -33 l35 0 0 215 0 215 -40 0 -40 0 0 -163 c0 -183 -5 -200
-59 -200 -17 0 -37 5 -44 12 -8 8 -13 66 -15 181 l-4 170 -34 0 -34 0 0 -180z"/>
</g>
</svg>
